<svg width="840" height="232" viewBox="0 0 840 232" fill="none" xmlns="http://www.w3.org/2000/svg">
<path d="M204.275 60.6631L180.498 110.804H226.561L255.654 171.467L227.18 231.512L198.704 171.467H0L29.0938 110.804H171.104L147.326 60.6631H1.85645L30.9502 0H175.182L204.275 60.6631ZM438.009 136.275C438.009 143.055 439.069 148.14 441.188 151.529C443.306 154.813 447.067 156.455 452.469 156.455C458.613 156.455 463.062 154.654 465.816 151.053C468.571 147.345 469.948 141.307 469.948 132.938V89.876H492.513V172.027H471.061V160.587H470.584C467.724 165.354 464.016 168.796 459.461 170.915C454.906 173.034 450.244 174.094 445.478 174.094C439.439 174.094 434.461 173.299 430.541 171.71C426.727 170.121 423.708 167.896 421.483 165.036C419.259 162.07 417.67 158.521 416.717 154.39C415.869 150.152 415.445 145.491 415.445 140.406V89.876H438.009V136.275ZM781.763 87.6514C786.635 87.6514 791.297 88.2874 795.746 89.5586C800.301 90.8298 804.327 92.7892 807.822 95.4375C811.424 97.9799 814.337 101.211 816.562 105.131C818.786 108.944 820.057 113.499 820.375 118.796H798.288C796.805 109.368 791.243 104.653 781.604 104.653C778.002 104.653 774.982 105.501 772.546 107.196C770.11 108.785 768.097 110.904 766.508 113.552C765.025 116.094 763.966 118.955 763.33 122.133C762.695 125.205 762.376 128.278 762.376 131.35C762.376 134.315 762.695 137.334 763.33 140.406C763.966 143.478 764.972 146.286 766.349 148.828C767.832 151.265 769.792 153.277 772.229 154.866C774.665 156.455 777.631 157.25 781.127 157.25C786.529 157.25 790.661 155.767 793.521 152.801C796.487 149.729 798.341 145.65 799.083 140.565H820.852C819.368 151.476 815.131 159.792 808.14 165.513C801.148 171.233 792.197 174.094 781.286 174.094C775.142 174.094 769.474 173.087 764.283 171.074C759.198 168.956 754.855 166.043 751.253 162.335C747.651 158.627 744.845 154.231 742.832 149.146C740.819 143.956 739.813 138.288 739.812 132.144C739.813 125.788 740.713 119.908 742.514 114.506C744.42 108.997 747.175 104.283 750.776 100.363C754.378 96.3379 758.775 93.2129 763.966 90.9883C769.156 88.7638 775.089 87.6514 781.763 87.6514ZM612.366 89.876H633.5V106.878H612.366V145.65C612.366 149.464 613.002 152.006 614.273 153.277C615.545 154.548 618.087 155.185 621.9 155.185C623.172 155.185 624.39 155.131 625.556 155.025C626.721 154.919 627.833 154.761 628.893 154.549V172.027C626.986 172.345 624.867 172.557 622.536 172.663C620.206 172.769 617.928 172.822 615.703 172.822C612.207 172.822 608.87 172.557 605.692 172.027C602.62 171.604 599.866 170.703 597.43 169.326C595.099 167.949 593.245 165.989 591.868 163.447C590.491 160.905 589.803 157.568 589.803 153.437V65.2461H612.366V89.876ZM359.337 58.5723C364.739 58.5723 369.666 59.0495 374.115 60.0029C378.564 60.9563 382.378 62.545 385.556 64.7695C388.734 66.8882 391.17 69.7488 392.865 73.3506C394.666 76.9523 395.566 81.4018 395.566 86.6982C395.566 92.4184 394.242 97.1855 391.594 100.999C389.051 104.812 385.238 107.938 380.153 110.374C387.145 112.387 392.336 115.936 395.726 121.021C399.221 125.999 400.969 132.038 400.969 139.136C400.969 144.856 399.856 149.835 397.632 154.072C395.407 158.203 392.388 161.593 388.575 164.241C384.868 166.889 380.577 168.85 375.704 170.121C370.937 171.392 366.011 172.027 360.926 172.027H305.946V58.5723H359.337ZM532.837 172.027H510.273V92.1797L532.837 78.1973V172.027ZM573.804 172.027H551.24V58.5723H573.804V172.027ZM687.616 87.6514C689.099 87.6514 690.741 87.9167 692.542 88.4463V109.421C691.483 109.209 690.211 109.05 688.729 108.944C687.245 108.732 685.815 108.626 684.438 108.626C680.306 108.626 676.81 109.315 673.95 110.692C671.09 112.069 668.76 113.976 666.959 116.412C665.264 118.743 664.045 121.497 663.304 124.675C662.562 127.853 662.191 131.296 662.191 135.004V172.027H639.628V89.876H661.079V105.131H661.397C662.457 102.589 663.887 100.257 665.688 98.1387C667.488 95.9141 669.554 94.0602 671.885 92.5771C674.215 90.9882 676.705 89.7703 679.354 88.9229C682.002 88.0755 684.756 87.6514 687.616 87.6514ZM724.588 172.027H702.023V92.1797L724.588 78.3564V172.027ZM330.894 152.642H357.589C360.025 152.642 362.357 152.43 364.581 152.006C366.805 151.476 368.765 150.682 370.46 149.623C372.155 148.458 373.479 146.921 374.433 145.015C375.492 143.108 376.021 140.671 376.021 137.705C376.021 131.879 374.38 127.747 371.096 125.311C367.812 122.768 363.468 121.497 358.065 121.497H330.894V152.642ZM330.894 104.495H356.159C360.608 104.495 364.263 103.435 367.123 101.316C369.983 99.1978 371.413 95.7551 371.413 90.9883C371.413 88.3401 370.937 86.1685 369.983 84.4736C369.03 82.7787 367.759 81.4544 366.17 80.501C364.581 79.5476 362.727 78.9116 360.608 78.5938C358.596 78.17 356.477 77.958 354.252 77.958H330.894V104.495ZM532.837 77.1641H510.273V58.5723H532.837V77.1641ZM724.588 77.1641H702.023V58.5723H724.588V77.1641ZM818.733 60.5254H812.864V76.9746H809.957V60.5254H804.088V57.8604H818.733V60.5254ZM830.336 73.5557L836.016 57.8604H840V76.9746H837.093V62.9756L831.951 76.9482H828.721L823.578 62.9756V76.9746H820.671V57.8604H824.655L830.336 73.5557Z" fill="#F5F5F5"/>
</svg>
