<svg display="block" role="presentation" viewBox="0 0 93 52" xmlns="http://www.w3.org/2000/svg"><path d="M 10.521 0 C 10.554 0.823 10.531 1.802 10.533 2.637 C 10.537 4.106 10.662 7.373 10.275 8.601 C 10.12 9.102 9.844 9.556 9.47 9.924 C 7.214 12.179 1.256 11.932 0.169 8.496 C -0.066 7.753 0.013 5.767 0.013 4.933 C 0.007 3.289 0.012 1.645 0.026 0 L 2.779 0.007 L 2.78 4.616 C 2.78 6.611 2.326 8.754 5.105 8.822 C 8.151 8.895 7.665 7.04 7.661 4.636 L 7.658 0 Z" fill="#3d4659" height="11.39076555639993px" id="e4FYiRNaJ" transform="translate(12.585 40.691)" width="10.555379527941628px"/><path d="M 5.21 0 C 7.038 0.008 9.287 0.687 10.017 2.533 C 10.144 2.853 10.272 3.402 10.261 3.742 C 10.044 3.898 7.906 3.802 7.5 3.79 C 7.176 2.76 6.481 2.618 5.522 2.505 C 4.785 2.417 2.843 2.666 2.888 3.64 C 2.938 4.726 5.887 4.656 6.624 4.795 C 7.797 4.903 9.34 5.157 10.008 6.283 C 10.715 7.476 10.665 9.313 9.619 10.312 C 8.264 11.605 6.831 11.666 5.086 11.674 C 3.213 11.65 1.046 11.247 0.303 9.244 C 0.135 8.79 0.078 8.341 0 7.866 C 0.872 7.808 1.881 7.823 2.755 7.855 C 2.843 8.1 2.991 8.54 3.199 8.701 C 4.016 9.291 5.182 9.225 6.138 9.196 C 6.657 9.18 7.898 8.824 7.773 8.13 C 7.606 7.201 6.294 7.218 5.555 7.122 C 4.071 6.93 2.353 6.976 1.091 6.041 C -0.193 5.054 -0.049 2.646 0.938 1.493 C 1.995 0.236 3.717 0.145 5.21 0 Z" fill="#3d4659" height="11.674338947368504px" id="FHGuV2AaK" transform="translate(70.719 40.403)" width="10.481287281049546px"/><path d="M 5.926 0.008 C 9.339 -0.141 12.072 1.889 12.262 5.367 C 12.465 9.074 10.317 11.53 6.614 11.681 C 3.407 11.795 0.533 10.464 0.069 6.904 C -0.146 5.251 0.118 3.496 1.156 2.148 C 2.354 0.593 3.933 0.226 5.813 0.014 C 5.851 0.012 5.888 0.009 5.926 0.008 Z M 5.937 2.566 C 5.003 2.634 4.258 2.813 3.62 3.566 C 2.547 4.834 2.646 7.426 3.955 8.5 C 4.638 9.061 5.494 9.206 6.335 9.211 C 6.997 9.113 7.542 9.048 8.109 8.662 C 10.087 7.314 9.781 3.255 7.245 2.692 C 6.805 2.594 6.386 2.548 5.937 2.566 Z" fill="#3d4659" height="11.687449438633356px" id="aBiwvt3ha" transform="translate(34.841 40.386)" width="12.275437905572234px"/><path d="M 0.026 0.031 C 2.42 0.027 5.161 -0.135 7.493 0.326 C 10.129 0.847 10.385 3.801 10.307 5.986 C 10.256 7.394 10.152 8.862 9.148 9.971 C 9.126 9.994 9.104 10.016 9.082 10.038 C 7.709 11.395 5.184 11.209 3.392 11.205 L 0 11.192 C 0.071 10.417 0.017 8.533 0.016 7.692 C 0.007 5.138 0.01 2.585 0.026 0.031 Z M 2.903 2.473 C 2.861 4.525 2.892 6.657 2.896 8.714 C 4.289 8.712 5.765 9.028 6.803 8.139 C 7.301 7.396 7.39 6.514 7.385 5.638 C 7.379 4.522 7.448 3.556 6.592 2.727 C 5.26 2.275 4.048 2.664 2.903 2.473 Z" fill="#3d4659" height="11.215360372604003px" id="na2H8vI8B" transform="translate(48.665 40.66)" width="10.318430220692663px"/><path d="M 7.034 0.019 C 8.072 -0.02 9.253 0.008 10.292 0.04 C 9.394 0.994 8.485 1.993 7.605 2.964 C 6.974 3.66 5.587 5.003 5.109 5.737 C 5.607 6.094 7.199 7.88 7.782 8.454 C 8.611 9.287 9.466 10.271 10.34 11.153 C 9.284 11.163 7.779 11.231 6.759 11.143 C 6.368 10.828 5.899 10.264 5.536 9.874 C 4.646 8.925 3.776 7.959 2.924 6.975 C 2.833 7.831 2.889 10.193 2.89 11.166 C 1.944 11.189 0.949 11.171 0 11.166 C 0.014 11.012 0.015 10.87 0.016 10.715 C 0.033 7.148 -0.019 3.573 0.025 0.006 L 2.877 0.007 C 2.944 1.46 2.819 3.121 2.924 4.555 C 3.354 3.94 6.534 0.303 7.034 0.019 Z" fill="#3d4659" height="11.187557847777086px" id="P2ZzTBsGQ" transform="translate(82.624 40.685)" width="10.340131578947364px"/><path d="M 4.368 0.019 C 5.473 -0.005 6.792 -0.012 7.89 0.033 C 8.455 1.366 8.962 2.755 9.488 4.104 L 12.25 11.161 C 11.233 11.172 10.219 11.2 9.203 11.152 C 8.91 10.485 8.759 9.769 8.453 9.076 L 7.926 9.059 L 3.73 9.072 C 3.382 9.769 3.267 10.511 2.896 11.165 C 2.032 11.22 0.884 11.171 0 11.151 C 0.276 10.294 0.917 8.782 1.263 7.883 L 3.086 3.172 C 3.275 2.678 4.114 0.338 4.368 0.019 Z M 6.016 2.531 C 5.78 3.28 4.81 6.136 4.48 6.699 L 6.093 6.706 C 6.597 6.705 7.144 6.716 7.644 6.703 C 7.263 5.986 6.479 2.82 6.016 2.531 Z" fill="#3d4659" height="11.190305579957524px" id="umCdVnyYV" transform="translate(0 40.68)" width="12.250204736842104px"/><path d="M 0.103 0 C 0.611 0.067 2.655 0.023 3.241 0.023 L 9.979 0.027 C 10.014 0.773 9.991 1.724 9.994 2.485 C 9.185 2.494 7.084 2.557 6.387 2.472 L 6.383 11.185 C 5.473 11.206 4.53 11.191 3.615 11.195 C 3.647 10.352 3.622 9.351 3.622 8.49 C 3.615 6.497 3.618 4.503 3.634 2.51 C 2.425 2.496 1.216 2.49 0.008 2.492 C 0.016 2.078 -0.052 0.196 0.103 0 Z" fill="#3d4659" height="11.196402935983453px" id="Vk0DsyPVE" transform="translate(24.374 40.666)" width="9.99870762663174px"/><path d="M 8.931 0.007 L 8.939 2.465 C 7.049 2.465 4.61 2.544 2.779 2.472 C 2.788 3.052 2.787 3.633 2.774 4.213 C 4.394 4.273 6.13 4.247 7.76 4.248 C 7.795 4.989 7.771 5.945 7.773 6.703 C 6.303 6.741 4.812 6.672 3.34 6.74 C 3.16 6.731 2.955 6.696 2.811 6.787 C 2.761 7.045 2.779 8.301 2.774 8.669 C 4.736 8.749 6.949 8.703 8.932 8.706 L 8.937 11.167 L 0 11.16 C 0.014 11.007 0.015 10.865 0.016 10.712 C 0.035 7.143 -0.018 3.568 0.025 0 Z" fill="#3d4659" height="11.166803684210578px" id="Es0hqeiQQ" transform="translate(60.551 40.692)" width="8.938768421052629px"/><path d="M 27.916 0.045 C 29.814 -0.043 32.253 0.026 34.185 0.026 L 43.961 0.026 C 44.741 0.033 44.951 0.001 45.479 0.54 C 45.743 1.428 45.653 3.56 45.652 4.567 L 45.648 31.025 C 43.418 31.064 41.096 31.034 38.858 31.034 L 28.115 31.024 C 28.256 29.397 28.011 27.511 28.136 25.851 C 28.252 24.291 28.87 23.767 30.145 23.022 C 31.065 22.486 31.996 21.925 32.897 21.382 L 40.575 16.804 C 41.425 16.298 42.47 15.745 43.234 15.159 C 43.851 14.686 43.438 13.871 42.636 13.856 C 41.634 13.838 40.6 13.842 39.608 13.842 L 33.044 13.843 C 32.109 13.842 28.562 13.706 27.877 13.974 C 27.453 14.14 27.054 14.441 26.668 14.682 L 24.621 15.956 L 17.008 20.68 L 4.43 28.461 L 1.708 30.138 C 1.248 30.421 0.398 30.908 0.04 31.246 C -0.006 30.256 0.017 29.072 0.016 28.072 L 0.012 22.675 C 0.012 21.873 -0.051 17.707 0.11 17.145 C 0.296 16.962 1.796 16.07 2.105 15.879 L 7.145 12.781 L 21.383 3.98 C 23.256 2.824 25.118 1.648 26.996 0.499 C 27.276 0.328 27.601 0.133 27.916 0.045 Z" fill="#3d4659" height="31.246188947368392px" id="BmhDZsbL3" transform="translate(24.16 -0.185)" width="45.66764479588933px"/></svg>