<svg display="block" role="presentation" viewBox="0 0 88 52" xmlns="http://www.w3.org/2000/svg"><path d="M 0.541 0 C 1.669 0.155 4.012 1.627 5.147 2.209 C 6.409 2.859 7.689 3.474 8.985 4.052 C 11.717 5.281 14.512 6.364 17.358 7.297 C 34.295 12.723 50.009 13.269 67.184 8.712 C 69.583 8.052 71.953 7.289 74.287 6.425 C 75.742 5.887 77.559 5.098 79.048 4.738 C 82.004 6.125 78.77 7.827 77.401 8.782 C 66.016 15.844 53.002 18.798 39.664 18.018 C 27.45 17.313 15.693 13.122 5.783 5.939 C 3.919 4.591 1.931 3.014 0.286 1.389 C -0.247 0.862 0.04 0.401 0.541 0 Z" fill="#3d4659" height="18.14010024518937px" id="DEoSFyej_" transform="translate(0 34.163)" width="80.25489423915258px"/><path d="M 9.004 0.103 C 10.973 -0.202 14.863 0.15 16.493 1.418 C 17.47 5.683 14.299 13.342 10.893 15.978 C 10.573 16.226 10.203 16.424 9.792 16.353 C 9.488 16.147 9.468 15.973 9.565 15.614 C 9.842 14.597 10.308 13.502 10.692 12.525 C 11.239 10.805 11.838 9.219 12.23 7.439 C 12.968 4.245 12.053 3.791 9.06 3.632 C 6.152 3.478 3.359 4.023 0.478 4.073 C 0.303 4.076 0.102 3.943 0 3.796 C 0.001 3.553 0.03 3.409 0.206 3.226 C 2.372 0.967 6.142 0.403 9.004 0.103 Z" fill="#3d4659" height="16.367754150781277px" id="m9PthVLzG" transform="translate(71.328 32.389)" width="16.672404288194215px"/><path d="M 8.676 0.05 C 11.028 -0.162 15.048 0.284 17.119 1.655 C 17.407 1.865 17.762 2.312 17.768 2.7 C 17.78 3.474 18.048 4.822 17.479 5.435 C 17.368 5.553 16.509 5.255 16.345 5.188 C 14.321 4.349 12.156 3.821 9.953 3.957 C 7.683 4.016 5.102 4.697 5.177 7.505 C 5.213 8.847 6.345 9.842 7.492 10.339 C 9.721 11.241 12.038 11.899 14.329 12.664 C 19.49 14.388 20.955 20.305 17.373 24.346 C 15.273 26.716 12.152 27.367 9.071 27.523 L 9.01 27.523 C 6.553 27.556 1.961 26.81 0.143 25.05 C 0.12 24.94 0.099 24.83 0.084 24.719 C 0.001 24.151 -0.109 22.343 0.246 21.862 C 0.481 21.768 0.933 21.816 1.168 21.884 C 2.747 22.34 4.087 22.967 5.744 23.253 C 8.644 23.754 14.655 23.856 14.383 19.454 C 14.269 17.608 12.523 16.86 10.996 16.307 C 8.26 15.316 5.15 14.916 2.85 13.013 C -0.091 10.581 -0.612 6.094 1.936 3.185 C 3.746 1.119 5.979 0.26 8.676 0.05 Z" fill="#3d4659" height="27.524434640181983px" id="ctwi7qBa8" transform="translate(65.005 -0.3)" width="19.3450088710819px"/><path d="M 9.3 0.093 C 11.087 -0.146 13.798 0.098 15.491 0.582 C 22.235 2.506 21.068 9.648 21.125 15.082 C 21.149 17.332 20.997 19.767 21.613 21.952 C 21.826 22.687 22.675 23.813 22.671 24.554 C 22.387 25.37 21.019 26.05 20.318 26.551 C 18.654 27.742 17.245 24.549 16.589 23.429 C 14.841 25.838 11.175 27.397 8.26 27.38 C 5.778 27.366 3.772 26.817 1.972 25.059 C -1.116 21.506 -0.562 15.52 3.529 12.945 C 7.49 10.452 12.011 11.285 16.317 12.163 C 16.32 10.114 16.501 6.674 14.764 5.24 C 12.622 3.472 8.346 4.038 5.863 4.746 C 4.824 5.043 3.213 5.839 2.217 5.9 C 1.393 5.543 1.676 3.241 1.922 2.505 C 3.512 1.016 7.167 0.341 9.3 0.093 Z M 16.317 15.472 C 14.258 15.061 12.667 14.8 10.539 14.897 C 8.955 14.957 7.395 15.116 6.258 16.343 C 4.779 17.939 4.769 21.083 6.405 22.57 C 7.397 23.472 8.659 23.516 9.908 23.446 C 10.302 23.42 10.694 23.376 11.084 23.315 C 12.291 23.09 13.462 22.551 14.409 21.761 C 16.394 20.102 16.388 17.883 16.317 15.472 Z" fill="#3d4659" height="27.3803117517543px" id="Yc6u128JW" transform="translate(3.644 -0.283)" width="22.670747806749258px"/><path d="M 15.113 0.665 C 15.477 -0.262 19.133 -0.052 19.9 0.291 C 20.472 0.547 20.761 2.265 20.917 2.902 C 21.217 4.133 21.528 5.422 21.815 6.664 L 23.656 14.507 C 24.138 16.595 24.657 19.047 25.281 21.087 C 25.549 19.397 26.041 17.731 26.475 16.073 L 27.869 10.636 C 28.657 7.659 29.367 4.645 30.199 1.679 C 30.266 1.438 30.544 0.608 30.693 0.47 C 31.048 0.139 32.121 0.013 32.606 0.023 C 33.342 0.037 34.789 -0.138 35.319 0.358 C 35.643 1.243 34.762 3.442 34.443 4.39 L 30.522 17.018 L 29.123 21.503 C 28.868 22.339 28.038 25.666 27.285 25.943 C 26.413 26.262 23.605 26.238 22.683 25.875 C 21.768 24.572 18.398 8.652 17.565 5.875 C 17.256 7.612 16.747 9.552 16.33 11.275 L 14.769 17.818 C 14.299 19.729 13.427 24.433 12.557 25.862 C 11.491 26.282 8.927 26.262 7.801 25.876 C 7.711 25.769 7.63 25.654 7.559 25.534 C 7.01 24.627 5.639 19.654 5.244 18.375 L 2.089 7.999 C 1.399 5.739 0.677 3.488 0.067 1.203 C -0.098 0.583 0.032 0.395 0.552 0.081 C 1.722 -0.033 3.513 -0.056 4.62 0.267 C 5.446 1.104 5.892 3.711 6.2 4.942 L 9.418 17.627 C 9.684 18.682 9.998 19.761 10.215 20.821 C 10.571 19.584 10.878 17.953 11.187 16.666 L 13.604 6.445 C 14.041 4.562 14.412 2.456 15.113 0.665 Z" fill="#3d4659" height="26.17103152294632px" id="UdHwN0YPd" transform="translate(27.542 0.343)" width="35.38960698453964px"/></svg>