<svg display="block" role="presentation" viewBox="0 0 143 30" xmlns="http://www.w3.org/2000/svg"><path d="M 14.105 0 C 14.144 3.035 14.123 6.127 14.118 9.165 C 14.115 10.862 14.184 13.035 14.106 14.697 L 0 14.697 L 0 0.062 L 9.761 0.071 C 10.549 0.071 13.496 0.121 14.105 0 Z" fill="#3d4659" height="14.69742286689429px" id="yzhQcKqz6" transform="translate(0 15.675)" width="14.143289509933158px"/><path d="M 0.027 0.036 C 4.882 -0.041 9.833 0.031 14.698 0.018 L 14.695 14.66 L 0.059 14.66 C -0.024 13.965 0.009 12.918 0.009 12.185 L 0.014 8.077 L 0.013 2.814 C 0.013 1.998 -0.024 0.831 0.027 0.036 Z" fill="#3d4659" height="14.659887403640855px" id="FclYhzu6P" transform="translate(15.557 15.713)" width="14.697816885628392px"/><path d="M 5.983 0.072 C 9.807 -0.479 13.352 2.179 13.891 6.002 C 14.429 9.824 11.755 13.356 7.927 13.88 C 4.118 14.401 0.605 11.747 0.069 7.944 C -0.467 4.141 2.178 0.621 5.983 0.072 Z M 9.75 10.052 C 11.438 7.273 10.771 2.364 6.725 2.623 C 6.024 2.77 5.485 2.891 4.928 3.374 C 3.525 4.591 3.252 6.669 3.582 8.405 C 3.952 10.359 5.531 11.469 7.495 11.275 C 8.342 11.15 9.296 10.799 9.75 10.052 Z" fill="#3d4659" height="13.945283214464082px" id="mAfX1H98O" transform="translate(113.059 10.611)" width="13.959496275598564px"/><path d="M 5.937 0.078 C 9.746 -0.493 13.297 2.129 13.868 5.933 C 14.438 9.738 11.813 13.284 8.005 13.854 C 4.197 14.423 0.649 11.801 0.078 7.998 C -0.492 4.195 2.132 0.649 5.937 0.078 Z M 9.812 9.908 C 11.373 7.091 10.663 2.278 6.648 2.612 C 4.467 3.067 3.63 4.436 3.468 6.583 C 3.259 9.33 4.548 11.526 7.554 11.249 C 8.419 11.1 9.379 10.687 9.812 9.908 Z" fill="#3d4659" height="13.93137514530127px" id="Q1HXEy3np" transform="translate(87.926 10.623)" width="13.94567297914902px"/><path d="M 6.026 0.085 C 7.18 -0.176 9.215 0.2 10.329 0.713 L 10.338 3.724 C 7.273 1.448 3.454 2.83 3.281 6.814 C 3.129 10.292 6.09 12.257 9.192 10.714 C 9.408 10.606 10.202 10.126 10.367 10.133 L 10.395 10.289 L 10.395 13.017 C 7.926 14.091 4.457 14.266 2.358 12.438 C -2.008 8.635 -0.04 0.669 6.026 0.085 Z" fill="#3d4659" height="13.82091562890021px" id="VFCO5oVqU" transform="translate(67.553 10.653)" width="10.394509699065068px"/><path d="M 4.148 0.837 C 5.487 -0.144 7.287 -0.093 8.857 0.145 L 8.852 2.903 C 8.36 2.717 7.871 2.544 7.34 2.561 C 5.134 2.632 5.403 5.023 5.421 6.523 C 6.956 6.532 8.492 6.532 10.027 6.523 L 10.039 3.488 C 10.897 3.282 12.341 2.863 13.18 2.568 L 13.19 6.525 L 15.826 6.531 L 15.826 9.093 C 14.945 9.08 14.062 9.08 13.181 9.093 L 13.18 13.298 C 13.177 15.191 12.768 18.266 15.826 17.269 L 15.826 19.784 C 13.436 20.453 10.613 20.011 10.132 17.212 C 9.888 15.798 9.974 14.584 9.997 13.17 L 10.04 9.139 C 8.603 9.075 6.872 9.12 5.419 9.13 L 5.409 19.776 C 4.383 19.738 3.308 19.757 2.277 19.761 L 2.279 9.126 L 0.036 9.121 C 0.038 8.274 0.048 7.435 0 6.59 C 0.695 6.558 1.569 6.579 2.277 6.578 C 2.284 5.878 2.226 4.513 2.321 3.885 C 2.497 2.666 3.155 1.569 4.148 0.837 Z" fill="#3d4659" height="20.058847163652928px" id="NlWLnlmcI" transform="translate(127.102 4.399)" width="15.826146757679169px"/><path d="M 4.912 0.02 C 5.713 -0.098 7.344 0.336 8.134 0.565 C 8.162 1.575 8.141 2.648 8.137 3.663 C 6.772 2.832 5.002 2.07 3.518 3.068 C 3.319 3.454 3.282 3.608 3.176 4.027 C 3.791 6.482 9.135 5.871 8.868 9.942 C 8.645 13.354 5.87 13.972 2.996 13.929 C 1.927 13.824 0.994 13.675 0.012 13.238 C -0.014 12.261 0.012 11.161 0.01 10.176 C 1.262 10.905 2.404 11.448 3.901 11.429 C 4.638 11.419 5.789 11.002 5.705 10.1 C 5.584 8.791 3.426 8.261 2.475 7.715 C 2.017 7.453 1.554 7.224 1.167 6.847 C -0.361 5.527 -0.309 3.004 1.015 1.559 C 2.016 0.467 3.457 0.08 4.912 0.02 Z" fill="#3d4659" height="13.931099088494424px" id="uqlSsMekP" transform="translate(103.096 10.514)" width="8.877913829786763px"/><path d="M 19.61 0.003 C 19.705 -0.006 19.803 0.009 19.898 0.019 C 20.103 0.325 19.973 1.254 19.974 1.648 L 19.98 6.262 L 19.971 18.453 C 18.916 18.409 17.77 18.43 16.717 18.449 C 16.777 13.693 16.719 8.778 16.726 4.013 C 16.463 4.597 16.217 5.277 15.995 5.88 C 14.454 10.068 12.526 14.232 11.085 18.443 C 10.352 18.423 9.556 18.437 8.818 18.437 C 8.454 17.217 7.495 15.113 6.999 13.852 C 5.701 10.557 4.306 7.283 3.021 3.979 L 3.026 5.93 L 3.024 18.455 C 2.059 18.412 1.007 18.428 0.043 18.45 C -0.059 12.409 0.056 6.083 0.033 0.015 L 4.67 0.012 C 5.096 0.995 5.552 2.29 5.946 3.308 L 8.616 10.189 C 8.897 10.908 9.708 13.164 10.03 13.725 C 11.807 9.19 13.879 4.514 15.575 0.01 C 16.92 0.021 18.265 0.018 19.61 0.003 Z" fill="#3d4659" height="18.454671230834137px" id="dcJhUOAkn" transform="translate(39.398 5.722)" width="20.013460682739943px"/><path d="M 5.686 0.034 C 6.455 -0.019 6.992 -0.018 7.752 0.093 C 7.821 0.99 7.773 2.403 7.77 3.338 C 7.216 2.97 6.412 2.758 5.746 2.792 C 5.11 2.824 4.585 3.122 4.166 3.591 C 3.734 4.076 3.457 4.672 3.309 5.301 C 2.965 6.773 3.049 11.686 3.15 13.39 C 2.325 13.359 1.393 13.377 0.56 13.376 C 0.335 13.392 0.267 13.401 0.046 13.345 C -0.024 13.073 0.007 10.243 0.007 9.771 L 0.012 0.201 L 3.156 0.194 C 3.114 0.849 3.124 1.698 3.117 2.369 C 3.2 2.187 3.287 2.006 3.378 1.828 C 3.944 0.741 4.568 0.388 5.686 0.034 Z" fill="#3d4659" height="13.389542815866637px" id="Ii3P19ID2" transform="translate(80.231 10.779)" width="7.788786286893753px"/><path d="M 3.12 0.004 L 3.126 13.19 C 2.134 13.154 1.039 13.18 0.039 13.185 C -0.041 8.887 0.026 4.31 0.036 0 Z" fill="#3d4659" height="13.190359044368474px" id="j4RE3Ujsw" transform="translate(62.339 10.976)" width="3.1262372959332225px"/><path d="M 14.124 14.581 C 9.535 14.581 4.561 14.669 0 14.578 L 0 0 L 14.112 0 Z" fill="#3d4659" height="14.619272981533697px" id="nWti2O2qa" transform="translate(0 -0.375)" width="14.123568259385653px"/><path d="M 14.711 14.568 C 13.111 14.624 11.236 14.579 9.615 14.578 L 0 14.575 C 0.09 9.807 0.015 4.784 0.017 0 L 14.696 0 Z" fill="#3d4659" height="14.596029903375516px" id="oWsYWd64L" transform="translate(15.559 -0.375)" width="14.711234812286698px"/><path d="M 1.273 0.033 C 1.743 0.003 2.114 -0.049 2.586 0.108 C 3.502 0.414 4.094 1.445 3.747 2.379 C 3.515 3 3.127 3.217 2.549 3.475 C 0.284 4.064 -1.182 1.331 1.273 0.033 Z" fill="#3d4659" height="3.557167028194525px" id="NeZ_4MlL1" transform="translate(61.991 5.395)" width="3.8472782614838366px"/></svg>