<svg display="block" role="presentation" viewBox="0 0 145 19" xmlns="http://www.w3.org/2000/svg"><path d="M 3.65 9.111 C 3.649 11.231 3.695 13.536 3.633 15.631 C 9.136 15.639 14.872 15.549 20.353 15.644 C 20.039 16.148 18.454 18.796 18.17 19.004 L 8.499 19.004 C 8.07 18.928 6.95 18.95 6.478 18.953 L 3.134 18.979 C 2.599 18.983 1.792 19.017 1.288 18.873 C 0.911 18.769 0.581 18.534 0.357 18.211 C 0.19 17.972 0.056 17.643 0.045 17.353 C -0.025 15.472 0.007 13.516 0.008 11.633 L 0.018 0.025 C 1.169 0.022 2.515 0.052 3.652 0 Z" fill="#3d4659" height="19.004115405405482px" id="l688adzWU" transform="translate(102.93 0.051)" width="20.352570159872172px"/><path d="M 13.042 0.017 C 16.16 0.054 19.404 -0.051 22.503 0.035 C 21.789 1.152 21.113 2.262 20.385 3.379 L 11.537 3.364 C 9.081 3.363 7.324 3.276 5.425 5.16 C 2.337 8.225 3.385 13.621 7.467 15.166 C 9.014 15.752 10.089 15.626 11.715 15.624 L 15.493 15.618 L 22.824 15.622 C 22.117 16.647 21.376 17.893 20.707 18.96 C 17.9 18.857 14.965 18.97 12.146 18.941 C 8.778 18.906 6.473 19.209 3.605 16.974 C 1.659 15.443 0.389 13.194 0.073 10.718 C -0.236 8.195 0.441 5.649 1.959 3.625 C 3.615 1.453 5.852 0.397 8.485 0.056 C 9.021 -0.03 12.323 0.008 13.042 0.017 Z" fill="#3d4659" height="18.959530465509754px" id="TLpZ4gM8n" transform="translate(78.537 0.063)" width="22.823737923065636px"/><path d="M 14.134 0.018 C 15.537 0.33 16.152 1.746 16.871 2.886 L 19.316 6.774 L 27.063 19.051 C 25.651 19.043 24.24 19.048 22.829 19.065 C 22.172 18.12 21.49 16.776 20.801 15.733 C 17.603 15.692 14.314 15.73 11.11 15.73 C 10.469 14.595 9.63 13.482 9.017 12.355 L 18.592 12.355 C 17.948 11.433 17.292 10.301 16.697 9.324 L 13.519 4.136 C 12.44 6.112 10.505 9.074 9.251 11.053 L 4.267 19.066 C 2.921 19.017 1.365 19.046 0 19.043 C 0.717 17.986 1.564 16.499 2.273 15.38 L 8.663 5.267 C 9.237 4.37 9.806 3.469 10.368 2.565 C 11.204 1.23 11.429 0.459 13.013 0 L 14.048 0 C 14.077 0.005 14.106 0.011 14.134 0.018 Z" fill="#3d4659" height="19.065736486486472px" id="JaTuiiDH8" transform="translate(53.568 -0.05)" width="27.062584459459465px"/><path d="M 14.413 0.04 C 16.862 0.098 20.392 -0.255 22.668 0.434 C 25.064 1.184 27.066 2.869 28.234 5.117 C 30.63 9.631 28.892 15.471 24.398 17.845 C 23.41 18.367 22.362 18.767 21.235 18.897 C 19.379 19.013 17.285 18.965 15.425 18.965 L 11.028 18.963 C 10.192 18.964 9.118 18.993 8.307 18.931 C 7.636 18.876 6.973 18.75 6.328 18.555 C 3.035 17.546 0.978 15.076 0 11.816 L 0 7.252 C 1.107 3.491 3.613 0.75 7.69 0.156 C 9.853 -0.158 12.225 0.145 14.413 0.04 Z M 24.151 4.965 C 22.094 3.09 19.986 3.403 17.446 3.388 C 14.927 3.373 12.396 3.417 9.878 3.391 C 8.114 3.456 6.605 4.021 5.386 5.35 C 4.286 6.551 3.703 8.146 3.765 9.783 C 3.815 11.386 4.502 12.902 5.671 13.984 C 6.476 14.727 7.459 15.243 8.522 15.48 C 9.639 15.731 11.848 15.648 13.089 15.648 L 20.22 15.642 C 23.615 15.469 26.335 12.718 26.156 9.215 C 26.078 7.583 25.356 6.051 24.151 4.965 Z" fill="#3d4659" height="18.97474155924062px" id="h9j2aXfsf" transform="translate(0 0.04)" width="29.311542273942226px"/><path d="M 11.923 0.041 C 14.935 0.041 17.885 -0.44 20.201 1.896 C 21.413 3.121 22.091 4.787 22.083 6.522 C 22.077 8.186 21.427 9.781 20.272 10.965 C 18.375 12.891 16.577 12.867 14.122 12.869 C 14.688 13.229 15.979 14.391 16.547 14.874 L 21.335 18.974 L 16.136 18.976 C 15.718 18.711 14.024 17.153 13.519 16.706 L 7.734 11.613 C 6.972 10.94 6.155 10.241 5.415 9.551 C 8.573 9.508 11.713 9.551 14.949 9.55 C 17.981 9.549 19.736 6.787 17.6 4.278 C 16.86 3.41 15.572 3.393 14.49 3.402 C 10.89 3.432 7.265 3.354 3.661 3.423 C 3.569 8.492 3.641 13.901 3.66 18.987 C 2.507 18.947 1.205 18.977 0.041 18.977 C -0.05 12.75 0.039 6.287 0.04 0.04 C 1.214 0.096 2.838 0.045 4.039 0.044 Z" fill="#3d4659" height="18.986507523103107px" id="ZdXrCu0tq" transform="translate(31.369 0.027)" width="22.08312860491966px"/><path d="M 8.335 0.069 C 9.392 -0.048 11.857 0.019 13.053 0.019 L 22.014 0.032 C 21.279 1.116 20.658 2.274 19.877 3.391 C 16.87 3.436 13.839 3.337 10.83 3.378 C 10.13 3.387 9.361 3.347 8.671 3.435 C 8.007 3.519 7.359 3.711 6.754 4.002 C 5.072 4.799 4.158 6.089 3.541 7.808 L 20.971 7.818 C 20.76 8.365 19.323 10.491 18.918 11.177 C 14.23 11.233 9.433 11.179 4.736 11.179 L 3.53 11.186 C 3.884 12.274 4.297 13.003 5.085 13.824 C 7.258 16.089 10.34 15.629 13.166 15.628 L 22.3 15.628 C 21.764 16.51 20.781 18.171 20.19 18.958 C 17.553 18.9 14.863 18.983 12.225 18.949 C 10.644 18.928 8.861 19.063 7.333 18.739 C 6.06 18.462 4.858 17.919 3.805 17.143 C 1.812 15.678 0.484 13.463 0.119 10.997 C -0.279 8.478 0.33 5.902 1.811 3.839 C 3.492 1.529 5.593 0.488 8.335 0.069 Z" fill="#3d4659" height="18.959745806128037px" id="lqhhwy_cw" transform="translate(122.7 0.049)" width="22.30002045397167px"/></svg>